<svg width="512" height="512" viewBox="0 0 512 512" fill="none" xmlns="http://www.w3.org/2000/svg">
<path d="M229.363 355.327C223.811 355.327 218.459 355.029 213.304 354.435C208.347 354.038 202.003 352.65 194.271 350.271C193.28 348.685 192.487 346.802 191.892 344.621C191.297 342.242 191 340.557 191 339.565C191 338.178 191.099 337.484 191.297 337.484C192.685 337.484 195.659 338.277 200.219 339.863C204.977 341.251 211.619 341.944 220.144 341.944C236.995 341.944 250.576 338.574 260.885 331.833C271.195 325.093 276.349 316.469 276.349 305.961C276.349 298.824 273.871 292.182 268.915 286.036C264.157 279.692 258.11 273.645 250.774 267.896C243.637 262.146 236.401 256.298 229.065 250.35C221.928 244.402 215.881 238.157 210.925 231.615C206.167 225.072 203.788 217.935 203.788 210.203C203.788 206.238 204.977 201.48 207.356 195.929C209.735 190.377 214.394 184.628 221.333 178.68C228.47 172.733 238.879 167.181 252.559 162.027C266.238 156.872 284.478 152.709 307.277 149.537L312.333 157.269L302.519 182.844C292.805 177.689 281.603 175.112 268.915 175.112C262.769 175.112 256.92 175.905 251.369 177.491C245.818 179.077 241.258 181.753 237.689 185.52C234.121 189.287 232.336 194.442 232.336 200.984C232.336 206.734 234.22 212.186 237.987 217.34C241.754 222.297 246.512 227.253 252.261 232.21C258.209 236.968 264.454 241.825 270.996 246.781C277.539 251.738 283.685 256.992 289.434 262.543C295.382 267.896 300.239 273.744 304.006 280.088C307.773 286.433 309.656 293.372 309.656 300.905C309.656 305.664 308.566 311.215 306.385 317.559C304.204 323.705 300.239 329.653 294.49 335.402C288.74 341.151 280.612 345.91 270.104 349.676C259.597 353.443 246.016 355.327 229.363 355.327Z" fill="#F4F3F5"/>
</svg>
